<svg xmlns="http://www.w3.org/2000/svg" viewBox="0 0 600 400" width="600" height="400">
  <!-- Background: browser frame -->
  <rect width="600" height="400" fill="#e2e8f0"/>

  <!-- Browser chrome -->
  <rect x="10" y="10" width="580" height="380" rx="12" fill="#fff" stroke="#cbd5e1" stroke-width="1"/>
  <!-- Browser bar -->
  <rect x="10" y="10" width="580" height="36" rx="12" fill="#f8fafc"/>
  <rect x="10" y="34" width="580" height="12" fill="#f8fafc"/>
  <!-- Browser dots -->
  <circle cx="32" cy="28" r="5" fill="#ef4444" opacity="0.7"/>
  <circle cx="50" cy="28" r="5" fill="#f59e0b" opacity="0.7"/>
  <circle cx="68" cy="28" r="5" fill="#22c55e" opacity="0.7"/>
  <!-- URL bar -->
  <rect x="90" y="18" width="340" height="20" rx="10" fill="#e2e8f0"/>
  <rect x="104" y="25" width="160" height="6" rx="3" fill="#94a3b8"/>

  <!-- Website content area -->
  <!-- Nav -->
  <rect x="22" y="46" width="556" height="40" fill="#fff"/>
  <rect x="36" y="58" width="50" height="10" rx="4" fill="#0f172a"/>
  <rect x="220" y="60" width="30" height="7" rx="3" fill="#64748b"/>
  <rect x="264" y="60" width="30" height="7" rx="3" fill="#64748b"/>
  <rect x="308" y="60" width="30" height="7" rx="3" fill="#64748b"/>
  <rect x="352" y="60" width="30" height="7" rx="3" fill="#64748b"/>
  <rect x="480" y="56" width="80" height="22" rx="11" fill="#6366f1"/>
  <rect x="496" y="63" width="48" height="7" rx="3" fill="#fff" opacity="0.9"/>

  <!-- Hero section -->
  <rect x="22" y="86" width="556" height="130" fill="#0f172a"/>
  <!-- Hero text -->
  <rect x="100" y="108" width="200" height="18" rx="5" fill="#f1f5f9"/>
  <rect x="80" y="132" width="240" height="12" rx="4" fill="#94a3b8"/>
  <rect x="100" y="150" width="200" height="12" rx="4" fill="#94a3b8"/>
  <rect x="130" y="168" width="80" height="24" rx="12" fill="#6366f1"/>
  <rect x="224" y="168" width="80" height="24" rx="12" fill="none" stroke="#475569" stroke-width="1.5"/>
  <rect x="142" y="175" width="56" height="10" rx="4" fill="#fff" opacity="0.9"/>
  <rect x="236" y="175" width="56" height="10" rx="4" fill="#94a3b8"/>
  <!-- Hero illustration -->
  <rect x="350" y="96" width="200" height="110" rx="8" fill="#1e293b" opacity="0.8"/>
  <rect x="370" y="106" width="160" height="90" rx="6" fill="#0f172a"/>
  <!-- Code lines inside hero illustration -->
  <rect x="380" y="116" width="30" height="5" rx="2" fill="#6366f1" opacity="0.8"/>
  <rect x="416" y="116" width="60" height="5" rx="2" fill="#f1f5f9" opacity="0.5"/>
  <rect x="388" y="127" width="45" height="5" rx="2" fill="#f59e0b" opacity="0.8"/>
  <rect x="439" y="127" width="55" height="5" rx="2" fill="#f1f5f9" opacity="0.3"/>
  <rect x="388" y="138" width="70" height="5" rx="2" fill="#22c55e" opacity="0.7"/>
  <rect x="380" y="149" width="55" height="5" rx="2" fill="#f1f5f9" opacity="0.3"/>
  <rect x="441" y="149" width="40" height="5" rx="2" fill="#ef4444" opacity="0.7"/>
  <rect x="388" y="160" width="80" height="5" rx="2" fill="#f1f5f9" opacity="0.4"/>
  <rect x="380" y="171" width="35" height="5" rx="2" fill="#6366f1" opacity="0.6"/>
  <rect x="421" y="171" width="65" height="5" rx="2" fill="#f1f5f9" opacity="0.3"/>

  <!-- Section: Features -->
  <rect x="22" y="216" width="556" height="96" fill="#f8fafc"/>
  <text x="300" y="238" text-anchor="middle" font-family="system-ui,sans-serif" font-size="10" fill="#0f172a" font-weight="600">FEATURES</text>
  <!-- Feature cards -->
  <rect x="36" y="248" width="164" height="50" rx="8" fill="#fff" stroke="#e2e8f0" stroke-width="1"/>
  <circle cx="58" cy="268" r="10" fill="#ede9fe"/>
  <rect x="75" y="264" width="90" height="6" rx="3" fill="#0f172a"/>
  <rect x="75" y="278" width="70" height="5" rx="2" fill="#94a3b8"/>
  <rect x="214" y="248" width="164" height="50" rx="8" fill="#fff" stroke="#e2e8f0" stroke-width="1"/>
  <circle cx="236" cy="268" r="10" fill="#dcfce7"/>
  <rect x="253" y="264" width="90" height="6" rx="3" fill="#0f172a"/>
  <rect x="253" y="278" width="70" height="5" rx="2" fill="#94a3b8"/>
  <rect x="392" y="248" width="164" height="50" rx="8" fill="#fff" stroke="#e2e8f0" stroke-width="1"/>
  <circle cx="414" cy="268" r="10" fill="#fef3c7"/>
  <rect x="431" y="264" width="90" height="6" rx="3" fill="#0f172a"/>
  <rect x="431" y="278" width="70" height="5" rx="2" fill="#94a3b8"/>

  <!-- Section: Pricing -->
  <rect x="22" y="312" width="556" height="72" fill="#fff"/>
  <text x="300" y="332" text-anchor="middle" font-family="system-ui,sans-serif" font-size="10" fill="#0f172a" font-weight="600">PRICING</text>
  <!-- Pricing cards -->
  <rect x="36" y="340" width="130" height="36" rx="8" fill="#f8fafc" stroke="#e2e8f0" stroke-width="1"/>
  <rect x="200" y="340" width="130" height="36" rx="8" fill="#6366f1"/>
  <rect x="364" y="340" width="130" height="36" rx="8" fill="#f8fafc" stroke="#e2e8f0" stroke-width="1"/>
  <rect x="50" y="352" width="50" height="8" rx="4" fill="#64748b"/>
  <rect x="50" y="363" width="30" height="5" rx="2" fill="#94a3b8"/>
  <rect x="220" y="352" width="50" height="8" rx="4" fill="#fff"/>
  <rect x="220" y="363" width="30" height="5" rx="2" fill="#c7d2fe"/>
  <rect x="378" y="352" width="50" height="8" rx="4" fill="#64748b"/>
  <rect x="378" y="363" width="30" height="5" rx="2" fill="#94a3b8"/>

  <!-- Footer strip -->
  <rect x="22" y="384" width="556" height="22" rx="0" fill="#0f172a"/>
  <rect x="36" y="391" width="60" height="6" rx="3" fill="#475569"/>
  <rect x="450" y="391" width="30" height="6" rx="3" fill="#475569"/>
  <rect x="490" y="391" width="30" height="6" rx="3" fill="#475569"/>
  <rect x="530" y="391" width="30" height="6" rx="3" fill="#475569"/>
</svg>
