<svg xmlns="http://www.w3.org/2000/svg" viewBox="0 0 600 400" width="600" height="400">
  <!-- Dark elegant background -->
  <rect width="600" height="400" fill="#030712"/>

  <!-- Subtle grid -->
  <defs>
    <pattern id="grid" width="40" height="40" patternUnits="userSpaceOnUse">
      <path d="M 40 0 L 0 0 0 40" fill="none" stroke="#111827" stroke-width="0.5"/>
    </pattern>
  </defs>
  <rect width="600" height="400" fill="url(#grid)"/>

  <!-- Glowing accent -->
  <ellipse cx="300" cy="120" rx="200" ry="80" fill="#6366f1" opacity="0.06"/>

  <!-- Nav bar -->
  <rect x="30" y="24" width="540" height="32" rx="8" fill="#111827" stroke="#1f2937" stroke-width="1"/>
  <rect x="46" y="36" width="40" height="8" rx="4" fill="#f9fafb"/>
  <rect x="340" y="36" width="26" height="8" rx="4" fill="#6b7280"/>
  <rect x="378" y="36" width="26" height="8" rx="4" fill="#6b7280"/>
  <rect x="416" y="36" width="26" height="8" rx="4" fill="#6b7280"/>
  <rect x="454" y="36" width="26" height="8" rx="4" fill="#6b7280"/>
  <rect x="506" y="31" width="52" height="20" rx="10" fill="#6366f1"/>
  <rect x="516" y="38" width="32" height="6" rx="3" fill="#fff"/>

  <!-- Hero section -->
  <rect x="30" y="66" width="540" height="110" rx="10" fill="#0f172a" stroke="#1e293b" stroke-width="1"/>
  <!-- Left: Text content -->
  <rect x="52" y="84" width="30" height="6" rx="3" fill="#6366f1"/>
  <rect x="52" y="96" width="200" height="16" rx="5" fill="#f9fafb"/>
  <rect x="52" y="118" width="180" height="16" rx="5" fill="#f9fafb"/>
  <rect x="52" y="140" width="150" height="9" rx="4" fill="#6b7280"/>
  <rect x="52" y="154" width="130" height="9" rx="4" fill="#6b7280"/>
  <rect x="52" y="168" width="64" height="22" rx="11" fill="#6366f1"/>
  <rect x="128" y="168" width="64" height="22" rx="11" fill="none" stroke="#374151" stroke-width="1.5"/>
  <rect x="62" y="175" width="44" height="8" rx="4" fill="#fff"/>
  <rect x="138" y="175" width="44" height="8" rx="4" fill="#6b7280"/>
  <!-- Right: profile circle -->
  <circle cx="490" cy="121" r="44" fill="#1e293b" stroke="#374151" stroke-width="1"/>
  <circle cx="490" cy="108" r="14" fill="#374151"/>
  <ellipse cx="490" cy="140" rx="20" ry="12" fill="#374151"/>
  <!-- Glow ring around profile -->
  <circle cx="490" cy="121" r="46" fill="none" stroke="#6366f1" stroke-width="1.5" stroke-dasharray="6 4" opacity="0.5"/>

  <!-- Works / Portfolio grid -->
  <text x="30" y="202" font-family="system-ui,sans-serif" font-size="9" fill="#6b7280" letter-spacing="3">SELECTED WORK</text>
  <!-- Project cards row 1 -->
  <rect x="30" y="212" width="168" height="96" rx="10" fill="#111827" stroke="#1f2937" stroke-width="1"/>
  <rect x="30" y="212" width="168" height="56" rx="10" fill="#1e3a5f"/>
  <rect x="30" y="248" width="168" height="20" fill="#1e3a5f"/>
  <rect x="44" y="226" width="80" height="8" rx="4" fill="#bfdbfe"/>
  <rect x="44" y="240" width="55" height="6" rx="3" fill="#60a5fa" opacity="0.7"/>
  <rect x="44" y="276" width="90" height="7" rx="3" fill="#f9fafb"/>
  <rect x="44" y="290" width="60" height="6" rx="3" fill="#6b7280"/>
  <rect x="168" y="286" width="22" height="15" rx="5" fill="#6366f1" opacity="0.4"/>

  <rect x="210" y="212" width="168" height="96" rx="10" fill="#111827" stroke="#1f2937" stroke-width="1"/>
  <rect x="210" y="212" width="168" height="56" rx="10" fill="#14532d" opacity="0.8"/>
  <rect x="210" y="248" width="168" height="20" fill="#14532d" opacity="0.8"/>
  <rect x="224" y="226" width="80" height="8" rx="4" fill="#bbf7d0"/>
  <rect x="224" y="240" width="55" height="6" rx="3" fill="#4ade80" opacity="0.7"/>
  <rect x="224" y="276" width="90" height="7" rx="3" fill="#f9fafb"/>
  <rect x="224" y="290" width="60" height="6" rx="3" fill="#6b7280"/>

  <rect x="390" y="212" width="180" height="96" rx="10" fill="#111827" stroke="#1f2937" stroke-width="1"/>
  <rect x="390" y="212" width="180" height="56" rx="10" fill="#4a1942" opacity="0.9"/>
  <rect x="390" y="248" width="180" height="20" fill="#4a1942" opacity="0.9"/>
  <rect x="404" y="226" width="80" height="8" rx="4" fill="#f5d0fe"/>
  <rect x="404" y="240" width="55" height="6" rx="3" fill="#d946ef" opacity="0.7"/>
  <rect x="404" y="276" width="90" height="7" rx="3" fill="#f9fafb"/>
  <rect x="404" y="290" width="60" height="6" rx="3" fill="#6b7280"/>

  <!-- Skills section -->
  <rect x="30" y="320" width="260" height="60" rx="10" fill="#111827" stroke="#1f2937" stroke-width="1"/>
  <text x="46" y="338" font-family="system-ui,sans-serif" font-size="8" fill="#6b7280" letter-spacing="2">SKILLS</text>
  <rect x="46" y="344" width="50" height="18" rx="9" fill="#312e81" opacity="0.8"/>
  <rect x="104" y="344" width="44" height="18" rx="9" fill="#14532d" opacity="0.8"/>
  <rect x="156" y="344" width="54" height="18" rx="9" fill="#4a1942" opacity="0.8"/>
  <rect x="218" y="344" width="40" height="18" rx="9" fill="#7c2d12" opacity="0.8"/>
  <rect x="52" y="349" width="38" height="8" rx="4" fill="#818cf8"/>
  <rect x="110" y="349" width="32" height="8" rx="4" fill="#4ade80"/>
  <rect x="162" y="349" width="42" height="8" rx="4" fill="#e879f9"/>
  <rect x="224" y="349" width="28" height="8" rx="4" fill="#fb923c"/>
  <rect x="46" y="368" width="70" height="6" rx="3" fill="#1f2937"/>
  <rect x="124" y="368" width="60" height="6" rx="3" fill="#1f2937"/>
  <rect x="192" y="368" width="80" height="6" rx="3" fill="#1f2937"/>

  <!-- Contact section -->
  <rect x="305" y="320" width="265" height="60" rx="10" fill="#6366f1" opacity="0.15" stroke="#6366f1" stroke-width="1" stroke-opacity="0.4"/>
  <rect x="322" y="332" width="120" height="10" rx="4" fill="#a5b4fc"/>
  <rect x="322" y="348" width="80" height="8" rx="4" fill="#6366f1" opacity="0.7"/>
  <rect x="430" y="328" width="120" height="44" rx="8" fill="#6366f1"/>
  <rect x="448" y="346" width="84" height="8" rx="4" fill="#fff"/>
</svg>
